<svg id="Group" xmlns="http://www.w3.org/2000/svg" width="24.06" height="30" viewBox="0 0 24.06 30">
  <defs>
    <style>
      .cls-1 {
        fill-rule: evenodd;
      }
    </style>
  </defs>
  <path id="Vector" class="cls-1" d="M2009.99,42a12.036,12.036,0,0,0-12.02,12.025,12.219,12.219,0,0,0,.21,2.258c0.01,0.044.03,0.176,0.08,0.4a12.509,12.509,0,0,0,.81,2.371c1.29,3.05,4.14,7.736,10.4,12.755a0.839,0.839,0,0,0,1.06,0c6.25-5.019,9.1-9.7,10.4-12.755a12.36,12.36,0,0,0,.81-2.371c0.05-.227.07-0.358,0.08-0.4a12.219,12.219,0,0,0,.21-2.258A12.059,12.059,0,0,0,2009.99,42Zm10.14,13.987v0.038c-0.01.031-.03,0.126-0.06,0.27v0.013a10.052,10.052,0,0,1-.7,2.05,0.028,0.028,0,0,0-.01.025c-1.18,2.786-3.76,7.038-9.37,11.673-5.61-4.635-8.19-8.887-9.36-11.673a0.028,0.028,0,0,1-.01-0.025,9.923,9.923,0,0,1-.7-2.05V56.3c-0.04-.145-0.05-0.239-0.06-0.27V55.981a9.945,9.945,0,0,1-.19-1.962,10.325,10.325,0,1,1,20.65,0A9.914,9.914,0,0,1,2020.13,55.987Z" transform="translate(-1997.97 -42)"/>
  <path id="Vector-2" data-name="Vector" class="cls-1" d="M2009.99,46.522a7.635,7.635,0,1,0,7.64,7.635A7.648,7.648,0,0,0,2009.99,46.522Zm0,13.572a5.937,5.937,0,1,1,5.94-5.937A5.942,5.942,0,0,1,2009.99,60.094Z" transform="translate(-1997.97 -42)"/>
</svg>
