<svg id="facebook_1" data-name="facebook 1" xmlns="http://www.w3.org/2000/svg" width="30" height="30" viewBox="0 0 30 30">
  <defs>
    <style>
      .cls-1 {
        fill: #2f3035;
        fill-rule: evenodd;
      }
    </style>
  </defs>
  <path id="Vector" class="cls-1" d="M2293.42,2941.8l-0.38.06Z" transform="translate(-2276 -2912)"/>
  <path id="Vector-2" data-name="Vector" class="cls-1" d="M2293.72,2941.75l-0.18.03Z" transform="translate(-2276 -2912)"/>
  <path id="Vector-3" data-name="Vector" class="cls-1" d="M2292.71,2941.9c-0.15.02-.3,0.03-0.44,0.05C2292.41,2941.93,2292.56,2941.92,2292.71,2941.9Z" transform="translate(-2276 -2912)"/>
  <path id="Vector-4" data-name="Vector" class="cls-1" d="M2292.99,2941.87a1.492,1.492,0,0,1-.21.02A1.492,1.492,0,0,0,2292.99,2941.87Z" transform="translate(-2276 -2912)"/>
  <path id="Vector-5" data-name="Vector" class="cls-1" d="M2294.13,2941.67a0.749,0.749,0,0,0-.16.04A0.749,0.749,0,0,1,2294.13,2941.67Z" transform="translate(-2276 -2912)"/>
  <path id="Vector-6" data-name="Vector" class="cls-1" d="M2295.14,2941.42a0.647,0.647,0,0,0-.13.04A0.647,0.647,0,0,1,2295.14,2941.42Z" transform="translate(-2276 -2912)"/>
  <path id="Vector-7" data-name="Vector" class="cls-1" d="M2294.83,2941.5a0.573,0.573,0,0,1-.14.04A0.573,0.573,0,0,0,2294.83,2941.5Z" transform="translate(-2276 -2912)"/>
  <path id="Vector-8" data-name="Vector" class="cls-1" d="M2294.43,2941.6a0.833,0.833,0,0,1-.15.04A0.833,0.833,0,0,0,2294.43,2941.6Z" transform="translate(-2276 -2912)"/>
  <path id="Vector-9" data-name="Vector" class="cls-1" d="M2292.26,2941.95c-0.08,0-.16.01-0.24,0.01C2292.1,2941.96,2292.18,2941.95,2292.26,2941.95Z" transform="translate(-2276 -2912)"/>
  <path id="Vector-10" data-name="Vector" class="cls-1" d="M2306,2927a15,15,0,1,0-15,15h0.26v-11.68h-3.22v-3.76h3.22v-2.76c0-3.21,1.96-4.95,4.82-4.95a25.13,25.13,0,0,1,2.89.15v3.35H2297c-1.56,0-1.86.74-1.86,1.82v2.39h3.72l-0.49,3.76h-3.23v11.1A15.007,15.007,0,0,0,2306,2927Z" transform="translate(-2276 -2912)"/>
  <path id="Vector-11" data-name="Vector" class="cls-1" d="M2291.99,2941.97c-0.16.01-.31,0.01-0.47,0.02C2291.68,2941.98,2291.83,2941.98,2291.99,2941.97Z" transform="translate(-2276 -2912)"/>
  <path id="Vector-12" data-name="Vector" class="cls-1" d="M2291.51,2941.99a2.175,2.175,0,0,0-.25.01A2.175,2.175,0,0,1,2291.51,2941.99Z" transform="translate(-2276 -2912)"/>
</svg>
