<svg xmlns="http://www.w3.org/2000/svg" width="24" height="22" viewBox="0 0 24 22">
  <defs>
    <style>
      .cls-1 {
        fill-rule: evenodd;
      }
    </style>
  </defs>
  <path id="Vector" class="cls-1" d="M1499,1435c0,4.07,3.06,9.48,12,15,8.94-5.52,12-10.93,12-15,0-7.96-9.65-9.03-12-3.73C1508.66,1426,1499,1427,1499,1435Zm12,1.23c0.23-1.12,1.55-6.23,5.38-6.23a4.6,4.6,0,0,1,4.62,5c0,3.91-3.63,8.47-10,12.63-6.37-4.16-10-8.72-10-12.63,0-3.48,2.37-5,4.58-5C1509.5,1430,1510.72,1435.12,1511,1436.23Z" transform="translate(-1499 -1428)"/>
</svg>
