<svg xmlns="http://www.w3.org/2000/svg" width="24" height="22" viewBox="0 0 24 22">
  <defs>
    <style>
      .cls-1 {
        fill: #2f3035;
        fill-rule: evenodd;
      }
    </style>
  </defs>
  <path id="Vector" class="cls-1" d="M2321,62c0,4.068,3.06,9.481,12,15,8.94-5.516,12-10.929,12-15,0-7.962-9.65-9.028-12-3.737C2330.66,53,2321,54,2321,62Zm12,1.226c0.23-1.12,1.55-6.229,5.38-6.229,2.22,0,4.62,1.551,4.62,5,0,3.907-3.63,8.47-10,12.629-6.37-4.159-10-8.722-10-12.629,0-3.484,2.37-5.005,4.58-5.005C2331.5,57,2332.72,62.124,2333,63.229Z" transform="translate(-2321 -55)"/>
</svg>
