<svg xmlns="http://www.w3.org/2000/svg" width="18" height="21.094" viewBox="0 0 18 21.094">
  <defs>
    <style>
      .cls-1 {
        fill: none;
        stroke: #2f3035;
        stroke-width: 2px;
        fill-rule: evenodd;
      }
    </style>
  </defs>
  <path id="Vector" class="cls-1" d="M438.666,312.343a0.338,0.338,0,0,0-.333.343v6.171a0.339,0.339,0,0,1-.334.343h-4.666a0.338,0.338,0,0,1-.333-0.343v-11.84a0.347,0.347,0,0,1,.12-0.263l7.666-6.571a0.326,0.326,0,0,1,.427,0l7.666,6.571a0.345,0.345,0,0,1,.121.263v11.84a0.339,0.339,0,0,1-.334.343H444a0.339,0.339,0,0,1-.334-0.343v-6.171a0.338,0.338,0,0,0-.333-0.343h-4.667Z" transform="translate(-432 -299.094)"/>
</svg>
