<svg id="icons8-рубль-50" xmlns="http://www.w3.org/2000/svg" width="15" height="17.969" viewBox="0 0 15 17.969">
  <defs>
    <style>
      .cls-1 {
        fill: #1c62cd;
        fill-rule: evenodd;
      }
    </style>
  </defs>
  <g id="Group">
    <path id="Vector" class="cls-1" d="M2421.68,277.918V269.4c2.8,0,5.34-.112,7.88.037a5.135,5.135,0,0,1-.19,10.228c-1.9.111-3.75,0.036-5.72,0.036Zm1.97-6.819v6.893c0.49,0.037,1.97,0,2.34,0a32.78,32.78,0,0,0,3.38-.074,3.379,3.379,0,0,0,3.03-3.409,3.477,3.477,0,0,0-3.26-3.41C2427.36,271.025,2425.54,271.1,2423.65,271.1Z" transform="translate(-2419.56 -269.031)"/>
    <path id="Vector-2" data-name="Vector" class="cls-1" d="M2427.25,280.1h-3.6v-0.741h1.81c1.33,0,2.62.037,3.91-.037a4.785,4.785,0,0,0,.15-9.523c-1.74-.112-3.49-0.075-5.3-0.038-0.72,0-1.44.038-2.16,0.038v8.152h-0.76v-8.894h0.38c0.87,0,1.7,0,2.54-.037,1.85-.037,3.59-0.037,5.37.037a5.5,5.5,0,0,1-.15,10.969C2428.68,280.1,2427.96,280.1,2427.25,280.1Zm0-1.742h-3.64l-0.34-.037v-7.633h2.12c1.29,0,2.54-.037,3.79.037a3.865,3.865,0,0,1,3.63,3.78,3.767,3.767,0,0,1-3.37,3.779A17.549,17.549,0,0,1,2427.25,278.362Zm-1.41-.741H2426c1.59,0.037,2.68,0,3.33-.037a3.014,3.014,0,0,0,2.69-3.038,3.049,3.049,0,0,0-2.92-3.039c-1.21-.074-2.42-0.037-3.71-0.037h-1.36v6.151h1.81Z" transform="translate(-2419.56 -269.031)"/>
  </g>
  <g id="Group-2" data-name="Group">
    <path id="Vector-3" data-name="Vector" class="cls-1" d="M2419.97,277.992h4.36v1.742h-4.36v-1.742Z" transform="translate(-2419.56 -269.031)"/>
    <path id="Vector-4" data-name="Vector" class="cls-1" d="M2424.67,280.067h-5.11v-2.483h5.11v2.483Zm-4.32-.741h3.6v-1h-3.6v1Z" transform="translate(-2419.56 -269.031)"/>
  </g>
  <g id="Group-3" data-name="Group">
    <path id="Vector-5" data-name="Vector" class="cls-1" d="M2419.97,281.438h7.88v1.742h-7.88v-1.742Z" transform="translate(-2419.56 -269.031)"/>
    <path id="Vector-6" data-name="Vector" class="cls-1" d="M2428.23,283.551h-8.64v-2.483h8.64v2.483Zm-7.88-.742h7.12v-1h-7.12v1Z" transform="translate(-2419.56 -269.031)"/>
  </g>
  <g id="Group-4" data-name="Group">
    <path id="Vector-7" data-name="Vector" class="cls-1" d="M2421.68,276.917h1.97v9.709h-1.97v-9.709Z" transform="translate(-2419.56 -269.031)"/>
    <path id="Vector-8" data-name="Vector" class="cls-1" d="M2424.03,287h-2.73v-10.45h2.73V287Zm-1.97-.741h1.21v-8.968h-1.21v8.968Z" transform="translate(-2419.56 -269.031)"/>
  </g>
</svg>
