<svg id="instagram-sketched_1_1" data-name="instagram-sketched (1) 1" xmlns="http://www.w3.org/2000/svg" width="30" height="30" viewBox="0 0 30 30">
  <defs>
    <style>
      .cls-1 {
        fill: #2f3035;
        fill-rule: evenodd;
      }
    </style>
  </defs>
  <path id="Vector" class="cls-1" d="M2171,2919.3a7.7,7.7,0,1,0,7.7,7.69,7.686,7.686,0,0,0-7.7-7.69h0Zm0,12.69a5,5,0,1,1,5-5,4.993,4.993,0,0,1-5,5h0Z" transform="translate(-2156 -2912)"/>
  <path id="Vector-2" data-name="Vector" class="cls-1" d="M2177.18,2912.1c-2.76-.13-9.59-0.13-12.35,0a8.94,8.94,0,0,0-6.3,2.42c-2.88,2.89-2.52,6.77-2.52,12.48,0,5.83-.32,9.63,2.52,12.47,2.9,2.89,6.84,2.52,12.47,2.52,5.78,0,7.78,0,9.82-.79,2.78-1.08,4.88-3.57,5.08-8.03,0.13-2.76.13-9.59,0-12.35-0.24-5.27-3.07-8.46-8.72-8.72h0Zm4.37,25.46c-1.89,1.89-4.51,1.72-10.58,1.72-6.25,0-8.76.1-10.59-1.74-2.1-2.09-1.72-5.46-1.72-10.56,0-6.91-.71-11.88,6.22-12.24,1.59-.06,2.06-0.07,6.07-0.07l0.06,0.03c6.66,0,11.88-.69,12.2,6.24,0.07,1.58.09,2.05,0.09,6.05-0.01,6.18.11,8.7-1.75,10.57h0Z" transform="translate(-2156 -2912)"/>
  <path id="Vector-3" data-name="Vector" class="cls-1" d="M2180.81,2918.99a1.8,1.8,0,1,1-1.8-1.8A1.8,1.8,0,0,1,2180.81,2918.99Z" transform="translate(-2156 -2912)"/>
</svg>
