<svg xmlns="http://www.w3.org/2000/svg" width="25" height="19" viewBox="0 0 25 19">
  <defs>
    <style>
      .cls-1 {
        opacity: 0.3;
      }

      .cls-2 {
        fill: #2f3035;
      }
    </style>
  </defs>
  <g id="Group_3.1" data-name="Group 3.1" class="cls-1">
    <g>
      <path class="cls-2" d="M7.5,0h16A1.5,1.5,0,0,1,25,1.5v0A1.5,1.5,0,0,1,23.5,3H7.5A1.5,1.5,0,0,1,6,1.5v0A1.5,1.5,0,0,1,7.5,0Z"/>
      <path id="Rectangle_38.1" data-name="Rectangle 38.1" class="cls-2" d="M7.5,8h16A1.5,1.5,0,0,1,25,9.5v0A1.5,1.5,0,0,1,23.5,11H7.5A1.5,1.5,0,0,1,6,9.5v0A1.5,1.5,0,0,1,7.5,8Z"/>
      <path id="Rectangle_38.2" data-name="Rectangle 38.2" class="cls-2" d="M7.5,16h16A1.5,1.5,0,0,1,25,17.5v0A1.5,1.5,0,0,1,23.5,19H7.5A1.5,1.5,0,0,1,6,17.5v0A1.5,1.5,0,0,1,7.5,16Z"/>
    </g>
    <g id="Group_2.4" data-name="Group 2.4">
      <rect class="cls-2" width="3" height="3" rx="1.5" ry="1.5"/>
      <rect id="Rectangle_38.1-2" data-name="Rectangle 38.1" class="cls-2" y="8" width="3" height="3" rx="1.5" ry="1.5"/>
      <rect id="Rectangle_38.2-2" data-name="Rectangle 38.2" class="cls-2" y="16" width="3" height="3" rx="1.5" ry="1.5"/>
    </g>
  </g>
</svg>
