<svg xmlns="http://www.w3.org/2000/svg" width="23.969" height="23.656" viewBox="0 0 23.969 23.656">
  <defs>
    <style>
      .cls-1 {
        fill: #2f3035;
        fill-rule: evenodd;
      }
    </style>
  </defs>
  <path id="Vector" class="cls-1" d="M294.088,916.205l-5.686-5.347a9.7,9.7,0,0,0,3.029-6.976c0-5.465-4.7-9.882-10.507-9.882s-10.507,4.417-10.507,9.882,4.7,9.882,10.507,9.882a11.323,11.323,0,0,0,6.057-1.8l5.81,5.464a1.107,1.107,0,0,0,1.359,0A0.861,0.861,0,0,0,294.088,916.205Zm-21.817-12.323a8.669,8.669,0,1,1,8.653,8.138A8.432,8.432,0,0,1,272.271,903.882Z" transform="translate(-270.406 -894)"/>
</svg>
