<svg id="vk_1" data-name="vk 1" xmlns="http://www.w3.org/2000/svg" width="30" height="17.5" viewBox="0 0 30 17.5">
  <defs>
    <style>
      .cls-1 {
        fill: #2f3035;
        fill-rule: evenodd;
      }
    </style>
  </defs>
  <path id="Vector" class="cls-1" d="M2240.89,2928.28a0.984,0.984,0,0,1,0-1.43c0.01,0,4.01-5.54,4.43-7.41h0c0.2-.69,0-1.19-0.99-1.19h-3.28a1.413,1.413,0,0,0-1.43.91,26.841,26.841,0,0,1-4.03,6.59,2.406,2.406,0,0,1-1.53.99c-0.21,0-.53-0.24-0.53-0.92v-6.38c0-.82-0.23-1.19-0.92-1.19h-5.16a0.781,0.781,0,0,0-.83.74c0,0.78,1.18.95,1.3,3.14v4.75c0,1.04-.19,1.23-0.61,1.23-1.11,0-3.82-4.01-5.42-8.61-0.33-.89-0.64-1.25-1.48-1.25h-3.29c-0.93,0-1.12.43-1.12,0.91,0,0.86,1.11,5.1,5.18,10.7,2.72,3.82,6.54,5.89,10.01,5.89,2.09,0,2.35-.46,2.35-1.25,0-3.65-.19-4,0.85-4,0.49,0,1.32.24,3.27,2.08,2.23,2.19,2.6,3.17,3.85,3.17h3.28c0.93,0,1.4-.46,1.13-1.37-0.62-1.91-4.84-5.83-5.03-6.1h0Z" transform="translate(-2216 -2918.25)"/>
</svg>
