<svg id="youtube_1" data-name="youtube 1" xmlns="http://www.w3.org/2000/svg" width="30" height="30" viewBox="0 0 30 30">
  <defs>
    <style>
      .cls-1 {
        fill: #2f3035;
        fill-rule: evenodd;
      }
    </style>
  </defs>
  <path id="Vector" class="cls-1" d="M2349.13,2929.81l4.88-2.81-4.88-2.81v5.62Z" transform="translate(-2336 -2912)"/>
  <path id="Vector-2" data-name="Vector" class="cls-1" d="M2351,2912a15,15,0,1,0,15,15A15.005,15.005,0,0,0,2351,2912Zm9.37,15.02a25.01,25.01,0,0,1-.38,4.5,2.358,2.358,0,0,1-1.66,1.66,57.8,57.8,0,0,1-7.33.38,55.092,55.092,0,0,1-7.33-.4,2.362,2.362,0,0,1-1.66-1.65,26.953,26.953,0,0,1,0-9.02,2.425,2.425,0,0,1,1.66-1.67,57.8,57.8,0,0,1,7.33-.38,54.94,54.94,0,0,1,7.33.4,2.345,2.345,0,0,1,1.66,1.65,23.515,23.515,0,0,1,.38,4.53h0Z" transform="translate(-2336 -2912)"/>
</svg>
